<mxfile host="app.diagrams.net" modified="2023-11-10T10:40:07.101Z" agent="Mozilla/5.0 (Windows NT 10.0; Win64; x64) AppleWebKit/537.36 (KHTML, like Gecko) Chrome/119.0.0.0 Safari/537.36 Edg/119.0.0.0" etag="nC18rcwa94Y-4oPcc1OP" version="22.1.0" type="github">
  <diagram id="rTQxJSwix9NVnIEWdD98" name="Page-2">
    <mxGraphModel dx="633" dy="540" grid="1" gridSize="10" guides="1" tooltips="1" connect="1" arrows="1" fold="1" page="1" pageScale="1" pageWidth="850" pageHeight="1100" math="0" shadow="0">
      <root>
        <mxCell id="V7BhvqMM_ORLJPoDA6a8-0" />
        <mxCell id="V7BhvqMM_ORLJPoDA6a8-1" parent="V7BhvqMM_ORLJPoDA6a8-0" />
        <mxCell id="V7BhvqMM_ORLJPoDA6a8-116" value="0" style="rounded=0;whiteSpace=wrap;html=1;fillColor=#000000;fontColor=#FFFFFF;" parent="V7BhvqMM_ORLJPoDA6a8-1" vertex="1">
          <mxGeometry x="360" y="80" width="40" height="40" as="geometry" />
        </mxCell>
        <mxCell id="V7BhvqMM_ORLJPoDA6a8-117" value="0" style="rounded=0;whiteSpace=wrap;html=1;fillColor=#000000;fontColor=#FFFFFF;" parent="V7BhvqMM_ORLJPoDA6a8-1" vertex="1">
          <mxGeometry x="400" y="80" width="40" height="40" as="geometry" />
        </mxCell>
        <mxCell id="V7BhvqMM_ORLJPoDA6a8-118" value="0" style="rounded=0;whiteSpace=wrap;html=1;fillColor=#000000;fontColor=#FFFFFF;" parent="V7BhvqMM_ORLJPoDA6a8-1" vertex="1">
          <mxGeometry x="400" y="120" width="40" height="40" as="geometry" />
        </mxCell>
        <mxCell id="V7BhvqMM_ORLJPoDA6a8-119" value="0" style="rounded=0;whiteSpace=wrap;html=1;fillColor=#000000;fontColor=#FFFFFF;" parent="V7BhvqMM_ORLJPoDA6a8-1" vertex="1">
          <mxGeometry x="360" y="120" width="40" height="40" as="geometry" />
        </mxCell>
        <mxCell id="V7BhvqMM_ORLJPoDA6a8-120" value="0" style="rounded=0;whiteSpace=wrap;html=1;fillColor=#000000;fontColor=#FFFFFF;" parent="V7BhvqMM_ORLJPoDA6a8-1" vertex="1">
          <mxGeometry x="400" y="160" width="40" height="40" as="geometry" />
        </mxCell>
        <mxCell id="V7BhvqMM_ORLJPoDA6a8-121" value="0" style="rounded=0;whiteSpace=wrap;html=1;fillColor=#000000;fontColor=#FFFFFF;" parent="V7BhvqMM_ORLJPoDA6a8-1" vertex="1">
          <mxGeometry x="360" y="160" width="40" height="40" as="geometry" />
        </mxCell>
        <mxCell id="V7BhvqMM_ORLJPoDA6a8-122" value="0" style="rounded=0;whiteSpace=wrap;html=1;fillColor=#000000;fontColor=#FFFFFF;" parent="V7BhvqMM_ORLJPoDA6a8-1" vertex="1">
          <mxGeometry x="360" y="200" width="40" height="40" as="geometry" />
        </mxCell>
        <mxCell id="V7BhvqMM_ORLJPoDA6a8-123" value="0" style="rounded=0;whiteSpace=wrap;html=1;fillColor=#000000;fontColor=#FFFFFF;" parent="V7BhvqMM_ORLJPoDA6a8-1" vertex="1">
          <mxGeometry x="400" y="200" width="40" height="40" as="geometry" />
        </mxCell>
        <mxCell id="V7BhvqMM_ORLJPoDA6a8-124" value="0" style="rounded=0;whiteSpace=wrap;html=1;fillColor=#000000;fontColor=#FFFFFF;" parent="V7BhvqMM_ORLJPoDA6a8-1" vertex="1">
          <mxGeometry x="320" y="80" width="40" height="40" as="geometry" />
        </mxCell>
        <mxCell id="V7BhvqMM_ORLJPoDA6a8-125" value="0" style="rounded=0;whiteSpace=wrap;html=1;fillColor=#000000;fontColor=#FFFFFF;" parent="V7BhvqMM_ORLJPoDA6a8-1" vertex="1">
          <mxGeometry x="320" y="120" width="40" height="40" as="geometry" />
        </mxCell>
        <mxCell id="V7BhvqMM_ORLJPoDA6a8-126" value="0" style="rounded=0;whiteSpace=wrap;html=1;fillColor=#000000;fontColor=#FFFFFF;" parent="V7BhvqMM_ORLJPoDA6a8-1" vertex="1">
          <mxGeometry x="320" y="160" width="40" height="40" as="geometry" />
        </mxCell>
        <mxCell id="V7BhvqMM_ORLJPoDA6a8-127" value="0" style="rounded=0;whiteSpace=wrap;html=1;fillColor=#000000;fontColor=#FFFFFF;" parent="V7BhvqMM_ORLJPoDA6a8-1" vertex="1">
          <mxGeometry x="320" y="200" width="40" height="40" as="geometry" />
        </mxCell>
        <mxCell id="V7BhvqMM_ORLJPoDA6a8-128" value="50" style="rounded=0;whiteSpace=wrap;html=1;fillColor=#323232;fontColor=#FFFFFF;" parent="V7BhvqMM_ORLJPoDA6a8-1" vertex="1">
          <mxGeometry x="440" y="80" width="40" height="40" as="geometry" />
        </mxCell>
        <mxCell id="V7BhvqMM_ORLJPoDA6a8-129" value="50" style="rounded=0;whiteSpace=wrap;html=1;fillColor=#323232;fontColor=#FFFFFF;" parent="V7BhvqMM_ORLJPoDA6a8-1" vertex="1">
          <mxGeometry x="440" y="120" width="40" height="40" as="geometry" />
        </mxCell>
        <mxCell id="V7BhvqMM_ORLJPoDA6a8-130" value="50" style="rounded=0;whiteSpace=wrap;html=1;fillColor=#323232;fontColor=#FFFFFF;" parent="V7BhvqMM_ORLJPoDA6a8-1" vertex="1">
          <mxGeometry x="480" y="80" width="40" height="40" as="geometry" />
        </mxCell>
        <mxCell id="V7BhvqMM_ORLJPoDA6a8-131" value="50" style="rounded=0;whiteSpace=wrap;html=1;fillColor=#323232;fontColor=#FFFFFF;" parent="V7BhvqMM_ORLJPoDA6a8-1" vertex="1">
          <mxGeometry x="480" y="120" width="40" height="40" as="geometry" />
        </mxCell>
        <mxCell id="V7BhvqMM_ORLJPoDA6a8-132" value="50" style="rounded=0;whiteSpace=wrap;html=1;fillColor=#323232;fontColor=#FFFFFF;" parent="V7BhvqMM_ORLJPoDA6a8-1" vertex="1">
          <mxGeometry x="520" y="80" width="40" height="40" as="geometry" />
        </mxCell>
        <mxCell id="V7BhvqMM_ORLJPoDA6a8-133" value="50" style="rounded=0;whiteSpace=wrap;html=1;fillColor=#323232;fontColor=#FFFFFF;" parent="V7BhvqMM_ORLJPoDA6a8-1" vertex="1">
          <mxGeometry x="520" y="120" width="40" height="40" as="geometry" />
        </mxCell>
        <mxCell id="V7BhvqMM_ORLJPoDA6a8-134" value="50" style="rounded=0;whiteSpace=wrap;html=1;fillColor=#323232;fontColor=#FFFFFF;" parent="V7BhvqMM_ORLJPoDA6a8-1" vertex="1">
          <mxGeometry x="440" y="160" width="40" height="40" as="geometry" />
        </mxCell>
        <mxCell id="V7BhvqMM_ORLJPoDA6a8-135" value="50" style="rounded=0;whiteSpace=wrap;html=1;fillColor=#323232;fontColor=#FFFFFF;" parent="V7BhvqMM_ORLJPoDA6a8-1" vertex="1">
          <mxGeometry x="440" y="200" width="40" height="40" as="geometry" />
        </mxCell>
        <mxCell id="V7BhvqMM_ORLJPoDA6a8-136" value="50" style="rounded=0;whiteSpace=wrap;html=1;fillColor=#323232;fontColor=#FFFFFF;" parent="V7BhvqMM_ORLJPoDA6a8-1" vertex="1">
          <mxGeometry x="480" y="160" width="40" height="40" as="geometry" />
        </mxCell>
        <mxCell id="V7BhvqMM_ORLJPoDA6a8-137" value="50" style="rounded=0;whiteSpace=wrap;html=1;fillColor=#323232;fontColor=#FFFFFF;" parent="V7BhvqMM_ORLJPoDA6a8-1" vertex="1">
          <mxGeometry x="480" y="200" width="40" height="40" as="geometry" />
        </mxCell>
        <mxCell id="V7BhvqMM_ORLJPoDA6a8-138" value="50" style="rounded=0;whiteSpace=wrap;html=1;fillColor=#323232;fontColor=#FFFFFF;" parent="V7BhvqMM_ORLJPoDA6a8-1" vertex="1">
          <mxGeometry x="520" y="160" width="40" height="40" as="geometry" />
        </mxCell>
        <mxCell id="V7BhvqMM_ORLJPoDA6a8-139" value="50" style="rounded=0;whiteSpace=wrap;html=1;fillColor=#323232;fontColor=#FFFFFF;" parent="V7BhvqMM_ORLJPoDA6a8-1" vertex="1">
          <mxGeometry x="520" y="200" width="40" height="40" as="geometry" />
        </mxCell>
        <mxCell id="V7BhvqMM_ORLJPoDA6a8-140" value="0" style="rounded=0;whiteSpace=wrap;html=1;fillColor=#000000;fontColor=#FFFFFF;" parent="V7BhvqMM_ORLJPoDA6a8-1" vertex="1">
          <mxGeometry x="80" y="313" width="40" height="40" as="geometry" />
        </mxCell>
        <mxCell id="V7BhvqMM_ORLJPoDA6a8-141" value="0" style="rounded=0;whiteSpace=wrap;html=1;fillColor=#000000;fontColor=#FFFFFF;" parent="V7BhvqMM_ORLJPoDA6a8-1" vertex="1">
          <mxGeometry x="80" y="353" width="40" height="40" as="geometry" />
        </mxCell>
        <mxCell id="V7BhvqMM_ORLJPoDA6a8-142" value="0" style="rounded=0;whiteSpace=wrap;html=1;fillColor=#000000;fontColor=#FFFFFF;" parent="V7BhvqMM_ORLJPoDA6a8-1" vertex="1">
          <mxGeometry x="80" y="393" width="40" height="40" as="geometry" />
        </mxCell>
        <mxCell id="V7BhvqMM_ORLJPoDA6a8-143" value="0" style="rounded=0;whiteSpace=wrap;html=1;fillColor=#000000;fontColor=#FFFFFF;" parent="V7BhvqMM_ORLJPoDA6a8-1" vertex="1">
          <mxGeometry x="80" y="433" width="40" height="40" as="geometry" />
        </mxCell>
        <mxCell id="V7BhvqMM_ORLJPoDA6a8-144" value="0" style="rounded=0;whiteSpace=wrap;html=1;fillColor=#000000;fontColor=#FFFFFF;" parent="V7BhvqMM_ORLJPoDA6a8-1" vertex="1">
          <mxGeometry x="40" y="313" width="40" height="40" as="geometry" />
        </mxCell>
        <mxCell id="V7BhvqMM_ORLJPoDA6a8-145" value="0" style="rounded=0;whiteSpace=wrap;html=1;fillColor=#000000;fontColor=#FFFFFF;" parent="V7BhvqMM_ORLJPoDA6a8-1" vertex="1">
          <mxGeometry x="40" y="353" width="40" height="40" as="geometry" />
        </mxCell>
        <mxCell id="V7BhvqMM_ORLJPoDA6a8-146" value="0" style="rounded=0;whiteSpace=wrap;html=1;fillColor=#000000;fontColor=#FFFFFF;" parent="V7BhvqMM_ORLJPoDA6a8-1" vertex="1">
          <mxGeometry x="40" y="393" width="40" height="40" as="geometry" />
        </mxCell>
        <mxCell id="V7BhvqMM_ORLJPoDA6a8-147" value="0" style="rounded=0;whiteSpace=wrap;html=1;fillColor=#000000;fontColor=#FFFFFF;" parent="V7BhvqMM_ORLJPoDA6a8-1" vertex="1">
          <mxGeometry x="40" y="433" width="40" height="40" as="geometry" />
        </mxCell>
        <mxCell id="V7BhvqMM_ORLJPoDA6a8-148" value="255" style="rounded=0;whiteSpace=wrap;html=1;" parent="V7BhvqMM_ORLJPoDA6a8-1" vertex="1">
          <mxGeometry x="120" y="433" width="40" height="40" as="geometry" />
        </mxCell>
        <mxCell id="V7BhvqMM_ORLJPoDA6a8-149" value="255" style="rounded=0;whiteSpace=wrap;html=1;" parent="V7BhvqMM_ORLJPoDA6a8-1" vertex="1">
          <mxGeometry x="160" y="433" width="40" height="40" as="geometry" />
        </mxCell>
        <mxCell id="V7BhvqMM_ORLJPoDA6a8-150" value="255" style="rounded=0;whiteSpace=wrap;html=1;" parent="V7BhvqMM_ORLJPoDA6a8-1" vertex="1">
          <mxGeometry x="120" y="393" width="40" height="40" as="geometry" />
        </mxCell>
        <mxCell id="V7BhvqMM_ORLJPoDA6a8-151" value="255" style="rounded=0;whiteSpace=wrap;html=1;" parent="V7BhvqMM_ORLJPoDA6a8-1" vertex="1">
          <mxGeometry x="160" y="393" width="40" height="40" as="geometry" />
        </mxCell>
        <mxCell id="V7BhvqMM_ORLJPoDA6a8-152" value="255" style="rounded=0;whiteSpace=wrap;html=1;" parent="V7BhvqMM_ORLJPoDA6a8-1" vertex="1">
          <mxGeometry x="120" y="353" width="40" height="40" as="geometry" />
        </mxCell>
        <mxCell id="V7BhvqMM_ORLJPoDA6a8-153" value="255" style="rounded=0;whiteSpace=wrap;html=1;" parent="V7BhvqMM_ORLJPoDA6a8-1" vertex="1">
          <mxGeometry x="160" y="353" width="40" height="40" as="geometry" />
        </mxCell>
        <mxCell id="V7BhvqMM_ORLJPoDA6a8-154" value="255" style="rounded=0;whiteSpace=wrap;html=1;" parent="V7BhvqMM_ORLJPoDA6a8-1" vertex="1">
          <mxGeometry x="120" y="313" width="40" height="40" as="geometry" />
        </mxCell>
        <mxCell id="V7BhvqMM_ORLJPoDA6a8-155" value="255" style="rounded=0;whiteSpace=wrap;html=1;" parent="V7BhvqMM_ORLJPoDA6a8-1" vertex="1">
          <mxGeometry x="160" y="313" width="40" height="40" as="geometry" />
        </mxCell>
        <mxCell id="V7BhvqMM_ORLJPoDA6a8-156" value="0" style="rounded=0;whiteSpace=wrap;html=1;fillColor=#000000;fontColor=#FFFFFF;" parent="V7BhvqMM_ORLJPoDA6a8-1" vertex="1">
          <mxGeometry x="240" y="313" width="40" height="40" as="geometry" />
        </mxCell>
        <mxCell id="V7BhvqMM_ORLJPoDA6a8-157" value="0" style="rounded=0;whiteSpace=wrap;html=1;fillColor=#000000;fontColor=#FFFFFF;" parent="V7BhvqMM_ORLJPoDA6a8-1" vertex="1">
          <mxGeometry x="240" y="353" width="40" height="40" as="geometry" />
        </mxCell>
        <mxCell id="V7BhvqMM_ORLJPoDA6a8-158" value="0" style="rounded=0;whiteSpace=wrap;html=1;fillColor=#000000;fontColor=#FFFFFF;" parent="V7BhvqMM_ORLJPoDA6a8-1" vertex="1">
          <mxGeometry x="240" y="393" width="40" height="40" as="geometry" />
        </mxCell>
        <mxCell id="V7BhvqMM_ORLJPoDA6a8-159" value="0" style="rounded=0;whiteSpace=wrap;html=1;fillColor=#000000;fontColor=#FFFFFF;" parent="V7BhvqMM_ORLJPoDA6a8-1" vertex="1">
          <mxGeometry x="240" y="433" width="40" height="40" as="geometry" />
        </mxCell>
        <mxCell id="V7BhvqMM_ORLJPoDA6a8-160" value="0" style="rounded=0;whiteSpace=wrap;html=1;fillColor=#000000;fontColor=#FFFFFF;" parent="V7BhvqMM_ORLJPoDA6a8-1" vertex="1">
          <mxGeometry x="200" y="313" width="40" height="40" as="geometry" />
        </mxCell>
        <mxCell id="V7BhvqMM_ORLJPoDA6a8-161" value="0" style="rounded=0;whiteSpace=wrap;html=1;fillColor=#000000;fontColor=#FFFFFF;" parent="V7BhvqMM_ORLJPoDA6a8-1" vertex="1">
          <mxGeometry x="200" y="353" width="40" height="40" as="geometry" />
        </mxCell>
        <mxCell id="V7BhvqMM_ORLJPoDA6a8-162" value="0" style="rounded=0;whiteSpace=wrap;html=1;fillColor=#000000;fontColor=#FFFFFF;" parent="V7BhvqMM_ORLJPoDA6a8-1" vertex="1">
          <mxGeometry x="200" y="393" width="40" height="40" as="geometry" />
        </mxCell>
        <mxCell id="V7BhvqMM_ORLJPoDA6a8-163" value="0" style="rounded=0;whiteSpace=wrap;html=1;fillColor=#000000;fontColor=#FFFFFF;" parent="V7BhvqMM_ORLJPoDA6a8-1" vertex="1">
          <mxGeometry x="200" y="433" width="40" height="40" as="geometry" />
        </mxCell>
        <mxCell id="V7BhvqMM_ORLJPoDA6a8-164" value="0" style="rounded=0;whiteSpace=wrap;html=1;fillColor=#000000;fontColor=#FFFFFF;" parent="V7BhvqMM_ORLJPoDA6a8-1" vertex="1">
          <mxGeometry x="320" y="313" width="40" height="40" as="geometry" />
        </mxCell>
        <mxCell id="V7BhvqMM_ORLJPoDA6a8-165" value="0" style="rounded=0;whiteSpace=wrap;html=1;fillColor=#000000;fontColor=#FFFFFF;" parent="V7BhvqMM_ORLJPoDA6a8-1" vertex="1">
          <mxGeometry x="360" y="313" width="40" height="40" as="geometry" />
        </mxCell>
        <mxCell id="V7BhvqMM_ORLJPoDA6a8-166" value="0" style="rounded=0;whiteSpace=wrap;html=1;fillColor=#000000;fontColor=#FFFFFF;" parent="V7BhvqMM_ORLJPoDA6a8-1" vertex="1">
          <mxGeometry x="360" y="353" width="40" height="40" as="geometry" />
        </mxCell>
        <mxCell id="V7BhvqMM_ORLJPoDA6a8-167" value="0" style="rounded=0;whiteSpace=wrap;html=1;fillColor=#000000;fontColor=#FFFFFF;" parent="V7BhvqMM_ORLJPoDA6a8-1" vertex="1">
          <mxGeometry x="320" y="353" width="40" height="40" as="geometry" />
        </mxCell>
        <mxCell id="V7BhvqMM_ORLJPoDA6a8-168" value="0" style="rounded=0;whiteSpace=wrap;html=1;fillColor=#000000;fontColor=#FFFFFF;" parent="V7BhvqMM_ORLJPoDA6a8-1" vertex="1">
          <mxGeometry x="360" y="393" width="40" height="40" as="geometry" />
        </mxCell>
        <mxCell id="V7BhvqMM_ORLJPoDA6a8-169" value="0" style="rounded=0;whiteSpace=wrap;html=1;fillColor=#000000;fontColor=#FFFFFF;" parent="V7BhvqMM_ORLJPoDA6a8-1" vertex="1">
          <mxGeometry x="320" y="393" width="40" height="40" as="geometry" />
        </mxCell>
        <mxCell id="V7BhvqMM_ORLJPoDA6a8-170" value="0" style="rounded=0;whiteSpace=wrap;html=1;fillColor=#000000;fontColor=#FFFFFF;" parent="V7BhvqMM_ORLJPoDA6a8-1" vertex="1">
          <mxGeometry x="320" y="433" width="40" height="40" as="geometry" />
        </mxCell>
        <mxCell id="V7BhvqMM_ORLJPoDA6a8-171" value="0" style="rounded=0;whiteSpace=wrap;html=1;fillColor=#000000;fontColor=#FFFFFF;" parent="V7BhvqMM_ORLJPoDA6a8-1" vertex="1">
          <mxGeometry x="360" y="433" width="40" height="40" as="geometry" />
        </mxCell>
        <mxCell id="V7BhvqMM_ORLJPoDA6a8-172" value="50" style="rounded=0;whiteSpace=wrap;html=1;fillColor=#323232;fontColor=#FFFFFF;" parent="V7BhvqMM_ORLJPoDA6a8-1" vertex="1">
          <mxGeometry x="400" y="313" width="40" height="40" as="geometry" />
        </mxCell>
        <mxCell id="V7BhvqMM_ORLJPoDA6a8-173" value="50" style="rounded=0;whiteSpace=wrap;html=1;fillColor=#323232;fontColor=#FFFFFF;" parent="V7BhvqMM_ORLJPoDA6a8-1" vertex="1">
          <mxGeometry x="400" y="353" width="40" height="40" as="geometry" />
        </mxCell>
        <mxCell id="V7BhvqMM_ORLJPoDA6a8-174" value="50" style="rounded=0;whiteSpace=wrap;html=1;fillColor=#323232;fontColor=#FFFFFF;" parent="V7BhvqMM_ORLJPoDA6a8-1" vertex="1">
          <mxGeometry x="440" y="313" width="40" height="40" as="geometry" />
        </mxCell>
        <mxCell id="V7BhvqMM_ORLJPoDA6a8-175" value="50" style="rounded=0;whiteSpace=wrap;html=1;fillColor=#323232;fontColor=#FFFFFF;" parent="V7BhvqMM_ORLJPoDA6a8-1" vertex="1">
          <mxGeometry x="440" y="353" width="40" height="40" as="geometry" />
        </mxCell>
        <mxCell id="V7BhvqMM_ORLJPoDA6a8-176" value="50" style="rounded=0;whiteSpace=wrap;html=1;fillColor=#323232;fontColor=#FFFFFF;" parent="V7BhvqMM_ORLJPoDA6a8-1" vertex="1">
          <mxGeometry x="400" y="393" width="40" height="40" as="geometry" />
        </mxCell>
        <mxCell id="V7BhvqMM_ORLJPoDA6a8-177" value="50" style="rounded=0;whiteSpace=wrap;html=1;fillColor=#323232;fontColor=#FFFFFF;" parent="V7BhvqMM_ORLJPoDA6a8-1" vertex="1">
          <mxGeometry x="400" y="433" width="40" height="40" as="geometry" />
        </mxCell>
        <mxCell id="V7BhvqMM_ORLJPoDA6a8-178" value="50" style="rounded=0;whiteSpace=wrap;html=1;fillColor=#323232;fontColor=#FFFFFF;" parent="V7BhvqMM_ORLJPoDA6a8-1" vertex="1">
          <mxGeometry x="440" y="393" width="40" height="40" as="geometry" />
        </mxCell>
        <mxCell id="V7BhvqMM_ORLJPoDA6a8-179" value="50" style="rounded=0;whiteSpace=wrap;html=1;fillColor=#323232;fontColor=#FFFFFF;" parent="V7BhvqMM_ORLJPoDA6a8-1" vertex="1">
          <mxGeometry x="440" y="433" width="40" height="40" as="geometry" />
        </mxCell>
        <mxCell id="V7BhvqMM_ORLJPoDA6a8-180" value="0" style="rounded=0;whiteSpace=wrap;html=1;fillColor=#000000;fontColor=#FFFFFF;" parent="V7BhvqMM_ORLJPoDA6a8-1" vertex="1">
          <mxGeometry x="480" y="313" width="40" height="40" as="geometry" />
        </mxCell>
        <mxCell id="V7BhvqMM_ORLJPoDA6a8-181" value="0" style="rounded=0;whiteSpace=wrap;html=1;fillColor=#000000;fontColor=#FFFFFF;" parent="V7BhvqMM_ORLJPoDA6a8-1" vertex="1">
          <mxGeometry x="520" y="313" width="40" height="40" as="geometry" />
        </mxCell>
        <mxCell id="V7BhvqMM_ORLJPoDA6a8-182" value="0" style="rounded=0;whiteSpace=wrap;html=1;fillColor=#000000;fontColor=#FFFFFF;" parent="V7BhvqMM_ORLJPoDA6a8-1" vertex="1">
          <mxGeometry x="520" y="353" width="40" height="40" as="geometry" />
        </mxCell>
        <mxCell id="V7BhvqMM_ORLJPoDA6a8-183" value="0" style="rounded=0;whiteSpace=wrap;html=1;fillColor=#000000;fontColor=#FFFFFF;" parent="V7BhvqMM_ORLJPoDA6a8-1" vertex="1">
          <mxGeometry x="480" y="353" width="40" height="40" as="geometry" />
        </mxCell>
        <mxCell id="V7BhvqMM_ORLJPoDA6a8-184" value="0" style="rounded=0;whiteSpace=wrap;html=1;fillColor=#000000;fontColor=#FFFFFF;" parent="V7BhvqMM_ORLJPoDA6a8-1" vertex="1">
          <mxGeometry x="520" y="393" width="40" height="40" as="geometry" />
        </mxCell>
        <mxCell id="V7BhvqMM_ORLJPoDA6a8-185" value="0" style="rounded=0;whiteSpace=wrap;html=1;fillColor=#000000;fontColor=#FFFFFF;" parent="V7BhvqMM_ORLJPoDA6a8-1" vertex="1">
          <mxGeometry x="480" y="393" width="40" height="40" as="geometry" />
        </mxCell>
        <mxCell id="V7BhvqMM_ORLJPoDA6a8-186" value="0" style="rounded=0;whiteSpace=wrap;html=1;fillColor=#000000;fontColor=#FFFFFF;" parent="V7BhvqMM_ORLJPoDA6a8-1" vertex="1">
          <mxGeometry x="480" y="433" width="40" height="40" as="geometry" />
        </mxCell>
        <mxCell id="V7BhvqMM_ORLJPoDA6a8-187" value="0" style="rounded=0;whiteSpace=wrap;html=1;fillColor=#000000;fontColor=#FFFFFF;" parent="V7BhvqMM_ORLJPoDA6a8-1" vertex="1">
          <mxGeometry x="520" y="433" width="40" height="40" as="geometry" />
        </mxCell>
        <mxCell id="uXhOLD6gw9fOatkM6okk-0" value="0" style="rounded=0;whiteSpace=wrap;html=1;fillColor=#000000;fontColor=#FFFFFF;" parent="V7BhvqMM_ORLJPoDA6a8-1" vertex="1">
          <mxGeometry x="80" y="80" width="40" height="40" as="geometry" />
        </mxCell>
        <mxCell id="uXhOLD6gw9fOatkM6okk-1" value="255" style="rounded=0;whiteSpace=wrap;html=1;" parent="V7BhvqMM_ORLJPoDA6a8-1" vertex="1">
          <mxGeometry x="160" y="200" width="40" height="40" as="geometry" />
        </mxCell>
        <mxCell id="uXhOLD6gw9fOatkM6okk-2" value="255" style="rounded=0;whiteSpace=wrap;html=1;" parent="V7BhvqMM_ORLJPoDA6a8-1" vertex="1">
          <mxGeometry x="200" y="200" width="40" height="40" as="geometry" />
        </mxCell>
        <mxCell id="uXhOLD6gw9fOatkM6okk-3" value="255" style="rounded=0;whiteSpace=wrap;html=1;" parent="V7BhvqMM_ORLJPoDA6a8-1" vertex="1">
          <mxGeometry x="240" y="200" width="40" height="40" as="geometry" />
        </mxCell>
        <mxCell id="uXhOLD6gw9fOatkM6okk-4" value="0" style="rounded=0;whiteSpace=wrap;html=1;fillColor=#000000;fontColor=#FFFFFF;" parent="V7BhvqMM_ORLJPoDA6a8-1" vertex="1">
          <mxGeometry x="120" y="80" width="40" height="40" as="geometry" />
        </mxCell>
        <mxCell id="uXhOLD6gw9fOatkM6okk-5" value="0" style="rounded=0;whiteSpace=wrap;html=1;fillColor=#000000;fontColor=#FFFFFF;" parent="V7BhvqMM_ORLJPoDA6a8-1" vertex="1">
          <mxGeometry x="120" y="120" width="40" height="40" as="geometry" />
        </mxCell>
        <mxCell id="uXhOLD6gw9fOatkM6okk-6" value="0" style="rounded=0;whiteSpace=wrap;html=1;fillColor=#000000;fontColor=#FFFFFF;" parent="V7BhvqMM_ORLJPoDA6a8-1" vertex="1">
          <mxGeometry x="80" y="120" width="40" height="40" as="geometry" />
        </mxCell>
        <mxCell id="uXhOLD6gw9fOatkM6okk-7" value="0" style="rounded=0;whiteSpace=wrap;html=1;fillColor=#000000;fontColor=#FFFFFF;" parent="V7BhvqMM_ORLJPoDA6a8-1" vertex="1">
          <mxGeometry x="120" y="160" width="40" height="40" as="geometry" />
        </mxCell>
        <mxCell id="uXhOLD6gw9fOatkM6okk-8" value="0" style="rounded=0;whiteSpace=wrap;html=1;fillColor=#000000;fontColor=#FFFFFF;" parent="V7BhvqMM_ORLJPoDA6a8-1" vertex="1">
          <mxGeometry x="80" y="160" width="40" height="40" as="geometry" />
        </mxCell>
        <mxCell id="uXhOLD6gw9fOatkM6okk-9" value="0" style="rounded=0;whiteSpace=wrap;html=1;fillColor=#000000;fontColor=#FFFFFF;" parent="V7BhvqMM_ORLJPoDA6a8-1" vertex="1">
          <mxGeometry x="80" y="200" width="40" height="40" as="geometry" />
        </mxCell>
        <mxCell id="uXhOLD6gw9fOatkM6okk-10" value="0" style="rounded=0;whiteSpace=wrap;html=1;fillColor=#000000;fontColor=#FFFFFF;" parent="V7BhvqMM_ORLJPoDA6a8-1" vertex="1">
          <mxGeometry x="120" y="200" width="40" height="40" as="geometry" />
        </mxCell>
        <mxCell id="uXhOLD6gw9fOatkM6okk-11" value="255" style="rounded=0;whiteSpace=wrap;html=1;" parent="V7BhvqMM_ORLJPoDA6a8-1" vertex="1">
          <mxGeometry x="160" y="160" width="40" height="40" as="geometry" />
        </mxCell>
        <mxCell id="uXhOLD6gw9fOatkM6okk-12" value="255" style="rounded=0;whiteSpace=wrap;html=1;" parent="V7BhvqMM_ORLJPoDA6a8-1" vertex="1">
          <mxGeometry x="200" y="160" width="40" height="40" as="geometry" />
        </mxCell>
        <mxCell id="uXhOLD6gw9fOatkM6okk-13" value="255" style="rounded=0;whiteSpace=wrap;html=1;" parent="V7BhvqMM_ORLJPoDA6a8-1" vertex="1">
          <mxGeometry x="240" y="160" width="40" height="40" as="geometry" />
        </mxCell>
        <mxCell id="uXhOLD6gw9fOatkM6okk-14" value="255" style="rounded=0;whiteSpace=wrap;html=1;" parent="V7BhvqMM_ORLJPoDA6a8-1" vertex="1">
          <mxGeometry x="160" y="120" width="40" height="40" as="geometry" />
        </mxCell>
        <mxCell id="uXhOLD6gw9fOatkM6okk-15" value="255" style="rounded=0;whiteSpace=wrap;html=1;" parent="V7BhvqMM_ORLJPoDA6a8-1" vertex="1">
          <mxGeometry x="200" y="120" width="40" height="40" as="geometry" />
        </mxCell>
        <mxCell id="uXhOLD6gw9fOatkM6okk-16" value="255" style="rounded=0;whiteSpace=wrap;html=1;" parent="V7BhvqMM_ORLJPoDA6a8-1" vertex="1">
          <mxGeometry x="240" y="120" width="40" height="40" as="geometry" />
        </mxCell>
        <mxCell id="uXhOLD6gw9fOatkM6okk-17" value="255" style="rounded=0;whiteSpace=wrap;html=1;" parent="V7BhvqMM_ORLJPoDA6a8-1" vertex="1">
          <mxGeometry x="160" y="80" width="40" height="40" as="geometry" />
        </mxCell>
        <mxCell id="uXhOLD6gw9fOatkM6okk-18" value="255" style="rounded=0;whiteSpace=wrap;html=1;" parent="V7BhvqMM_ORLJPoDA6a8-1" vertex="1">
          <mxGeometry x="200" y="80" width="40" height="40" as="geometry" />
        </mxCell>
        <mxCell id="uXhOLD6gw9fOatkM6okk-19" value="255" style="rounded=0;whiteSpace=wrap;html=1;" parent="V7BhvqMM_ORLJPoDA6a8-1" vertex="1">
          <mxGeometry x="240" y="80" width="40" height="40" as="geometry" />
        </mxCell>
        <mxCell id="uXhOLD6gw9fOatkM6okk-20" value="0" style="rounded=0;whiteSpace=wrap;html=1;fillColor=#000000;fontColor=#FFFFFF;" parent="V7BhvqMM_ORLJPoDA6a8-1" vertex="1">
          <mxGeometry x="40" y="80" width="40" height="40" as="geometry" />
        </mxCell>
        <mxCell id="uXhOLD6gw9fOatkM6okk-21" value="0" style="rounded=0;whiteSpace=wrap;html=1;fillColor=#000000;fontColor=#FFFFFF;" parent="V7BhvqMM_ORLJPoDA6a8-1" vertex="1">
          <mxGeometry x="40" y="120" width="40" height="40" as="geometry" />
        </mxCell>
        <mxCell id="uXhOLD6gw9fOatkM6okk-22" value="0" style="rounded=0;whiteSpace=wrap;html=1;fillColor=#000000;fontColor=#FFFFFF;" parent="V7BhvqMM_ORLJPoDA6a8-1" vertex="1">
          <mxGeometry x="40" y="160" width="40" height="40" as="geometry" />
        </mxCell>
        <mxCell id="uXhOLD6gw9fOatkM6okk-23" value="0" style="rounded=0;whiteSpace=wrap;html=1;fillColor=#000000;fontColor=#FFFFFF;" parent="V7BhvqMM_ORLJPoDA6a8-1" vertex="1">
          <mxGeometry x="40" y="200" width="40" height="40" as="geometry" />
        </mxCell>
        <mxCell id="uXhOLD6gw9fOatkM6okk-28" value="两张竖直边缘图像（数值代表每个像素的灰度值。）" style="text;html=1;strokeColor=none;fillColor=none;align=left;verticalAlign=middle;whiteSpace=wrap;rounded=0;fontColor=#000000;" parent="V7BhvqMM_ORLJPoDA6a8-1" vertex="1">
          <mxGeometry x="40" y="40" width="280" height="40" as="geometry" />
        </mxCell>
        <mxCell id="uXhOLD6gw9fOatkM6okk-29" value="每个像素与其周边像素的灰度值作差" style="text;html=1;strokeColor=none;fillColor=none;align=left;verticalAlign=middle;whiteSpace=wrap;rounded=0;fontColor=#000000;" parent="V7BhvqMM_ORLJPoDA6a8-1" vertex="1">
          <mxGeometry x="70" y="250" width="200" height="40" as="geometry" />
        </mxCell>
        <mxCell id="uXhOLD6gw9fOatkM6okk-78" value="若梯度幅度阈值&lt;span style=&quot;background-color: initial;&quot;&gt;设为100，则只有左图非0像素会视作边缘。&lt;/span&gt;" style="text;html=1;strokeColor=none;fillColor=none;align=left;verticalAlign=middle;whiteSpace=wrap;rounded=0;fontColor=#000000;" parent="V7BhvqMM_ORLJPoDA6a8-1" vertex="1">
          <mxGeometry x="40" y="480" width="480" height="40" as="geometry" />
        </mxCell>
        <mxCell id="Pjh5FvGpcLLiHx1BIr6n-2" value="" style="shape=flexArrow;endArrow=classic;html=1;rounded=0;width=52.5;endSize=6.5;endWidth=54.30555555555555;fillColor=#1ba1e2;strokeColor=#006EAF;" edge="1" parent="V7BhvqMM_ORLJPoDA6a8-1">
          <mxGeometry width="50" height="50" relative="1" as="geometry">
            <mxPoint x="300" y="250" as="sourcePoint" />
            <mxPoint x="300" y="310" as="targetPoint" />
          </mxGeometry>
        </mxCell>
      </root>
    </mxGraphModel>
  </diagram>
</mxfile>
